<svg width="93" height="22" viewBox="0 0 93 22" fill="none" xmlns="http://www.w3.org/2000/svg">
    <path d="M88.0694 13.4722L16.1882 21.5863H88.5259C91.9881 21.5863 93.8691 17.5381 91.6365 14.892C90.7594 13.8524 89.421 13.3197 88.0694 13.4722Z" fill="#74CC7E"/>
    <path d="M7.10233 16.4613C5.93877 16.4613 4.86924 16.191 3.89373 15.6503C2.92998 15.1097 2.16015 14.3575 1.58425 13.3937C1.0201 12.4182 0.738028 11.3252 0.738028 10.1146C0.738028 8.90406 1.0201 7.8169 1.58425 6.85315C2.16015 5.8894 2.92998 5.1372 3.89373 4.59656C4.86924 4.05591 5.93877 3.78559 7.10233 3.78559C8.26588 3.78559 9.32954 4.05591 10.2933 4.59656C11.2688 5.1372 12.0327 5.8894 12.5851 6.85315C13.1493 7.8169 13.4314 8.90406 13.4314 10.1146C13.4314 11.3252 13.1493 12.4182 12.5851 13.3937C12.021 14.3575 11.257 15.1097 10.2933 15.6503C9.32954 16.191 8.26588 16.4613 7.10233 16.4613ZM7.10233 13.7111C8.08958 13.7111 8.87704 13.382 9.4647 12.7238C10.0641 12.0656 10.3638 11.1959 10.3638 10.1146C10.3638 9.02159 10.0641 8.15186 9.4647 7.50544C8.87704 6.84727 8.08958 6.51819 7.10233 6.51819C6.10331 6.51819 5.3041 6.8414 4.7047 7.48782C4.11704 8.13424 3.82321 9.00984 3.82321 10.1146C3.82321 11.2077 4.11704 12.0833 4.7047 12.7414C5.3041 13.3879 6.10331 13.7111 7.10233 13.7111ZM21.1026 6.39478C22.2544 6.39478 23.1711 6.77088 23.8528 7.52308C24.5462 8.26352 24.893 9.28604 24.893 10.5906V16.3379H21.8959V10.9961C21.8959 10.3379 21.7255 9.82668 21.3847 9.46233C21.0438 9.09799 20.5855 8.91582 20.0096 8.91582C19.4337 8.91582 18.9753 9.09799 18.6344 9.46233C18.2936 9.82668 18.1232 10.3379 18.1232 10.9961V16.3379H15.1085V6.50056H18.1232V7.80515C18.4288 7.37028 18.8401 7.02944 19.3573 6.78263C19.8744 6.52406 20.4562 6.39478 21.1026 6.39478ZM36.261 11.2606C36.261 11.5426 36.2434 11.8365 36.2082 12.142H29.3855C29.4325 12.7532 29.6264 13.2233 29.9673 13.5524C30.3199 13.8697 30.7488 14.0284 31.2542 14.0284C32.0064 14.0284 32.5294 13.7111 32.8233 13.0764H36.0319C35.8673 13.7228 35.5676 14.3046 35.1327 14.8217C34.7096 15.3389 34.1749 15.7444 33.5285 16.0382C32.882 16.332 32.1592 16.4789 31.36 16.4789C30.3963 16.4789 29.5383 16.2732 28.7861 15.8619C28.0339 15.4505 27.4462 14.8629 27.0231 14.0989C26.6 13.335 26.3885 12.4417 26.3885 11.4192C26.3885 10.3967 26.5941 9.50347 27.0055 8.73952C27.4286 7.97557 28.0163 7.38791 28.7685 6.97656C29.5206 6.5652 30.3845 6.35952 31.36 6.35952C32.312 6.35952 33.1582 6.55932 33.8987 6.95893C34.6391 7.35853 35.215 7.92856 35.6264 8.669C36.0495 9.40945 36.261 10.2733 36.261 11.2606ZM33.1759 10.4672C33.1759 9.95009 32.9996 9.53873 32.647 9.23315C32.2944 8.92757 31.8536 8.77478 31.3247 8.77478C30.8194 8.77478 30.3904 8.92169 30.0378 9.21552C29.6969 9.50935 29.4854 9.92658 29.4031 10.4672H33.1759Z" fill="#74CC7E"/>
    <path d="M37.3983 9.5117C37.3983 8.16714 37.6892 6.97127 38.271 5.92407C38.8528 4.86394 39.6608 4.04298 40.6951 3.46121C41.7423 2.8665 42.9252 2.56915 44.2439 2.56915C45.86 2.56915 47.2433 2.99578 48.3939 3.84906C49.5446 4.70233 50.3138 5.86589 50.7017 7.33973H47.0559C46.7844 6.77088 46.3965 6.33778 45.8923 6.04042C45.401 5.74307 44.8386 5.59439 44.2051 5.59439C43.1838 5.59439 42.3564 5.94992 41.7229 6.66099C41.0894 7.37205 40.7727 8.32228 40.7727 9.5117C40.7727 10.7011 41.0894 11.6513 41.7229 12.3624C42.3564 13.0735 43.1838 13.429 44.2051 13.429C44.8386 13.429 45.401 13.2803 45.8923 12.983C46.3965 12.6856 46.7844 12.2525 47.0559 11.6837H50.7017C50.3138 13.1575 49.5446 14.3211 48.3939 15.1743C47.2433 16.0147 45.86 16.4349 44.2439 16.4349C42.9252 16.4349 41.7423 16.144 40.6951 15.5622C39.6608 14.9675 38.8528 14.1465 38.271 13.0993C37.6892 12.0521 37.3983 10.8563 37.3983 9.5117ZM56.0486 1.98737V16.3379H52.7324V1.98737H56.0486ZM60.1195 4.39205C59.5377 4.39205 59.0594 4.22398 58.6844 3.88784C58.3225 3.53878 58.1415 3.11214 58.1415 2.60793C58.1415 2.0908 58.3225 1.66416 58.6844 1.32802C59.0594 0.978954 59.5377 0.804421 60.1195 0.804421C60.6884 0.804421 61.1538 0.978954 61.5158 1.32802C61.8907 1.66416 62.0782 2.0908 62.0782 2.60793C62.0782 3.11214 61.8907 3.53878 61.5158 3.88784C61.1538 4.22398 60.6884 4.39205 60.1195 4.39205ZM61.7679 5.51682V16.3379H58.4517V5.51682H61.7679ZM63.5117 10.9274C63.5117 9.80259 63.7379 8.82003 64.1904 7.97968C64.6559 7.13934 65.2958 6.49292 66.1103 6.04042C66.9377 5.58793 67.8815 5.36168 68.9416 5.36168C70.2991 5.36168 71.4303 5.71721 72.3353 6.42827C73.2532 7.13934 73.8544 8.14129 74.1388 9.43413H70.6094C70.312 8.60671 69.7367 8.193 68.8834 8.193C68.2758 8.193 67.791 8.43218 67.429 8.91053C67.067 9.37595 66.886 10.0482 66.886 10.9274C66.886 11.8065 67.067 12.4852 67.429 12.9636C67.791 13.429 68.2758 13.6617 68.8834 13.6617C69.7367 13.6617 70.312 13.248 70.6094 12.4206H74.1388C73.8544 13.6876 73.2532 14.6831 72.3353 15.407C71.4174 16.131 70.2862 16.493 68.9416 16.493C67.8815 16.493 66.9377 16.2668 66.1103 15.8143C65.2958 15.3618 64.6559 14.7154 64.1904 13.875C63.7379 13.0347 63.5117 12.0521 63.5117 10.9274ZM82.5255 16.3379L79.2288 11.8V16.3379H75.9127V1.98737H79.2288V9.91894L82.5061 5.51682H86.598L82.0989 10.9467L86.6368 16.3379H82.5255Z" fill="#00818A"/>
</svg>
