<svg width="50" height="50" viewBox="0 0 50 50" fill="none" xmlns="http://www.w3.org/2000/svg">
    <defs>
        <linearGradient id="paint0_linear_86_1110" x1="25" y1="0" x2="25" y2="50"
            gradientUnits="userSpaceOnUse">
            <stop stop-color="#00818A" />
            <stop offset="1" stop-color="#74CC7E" />
        </linearGradient>
        <clipPath id="clip0_86_1110">
            <rect width="22" height="22" fill="white" transform="translate(14 14)" />
        </clipPath>
    </defs>
    <circle cx="25" cy="25" r="25" fill="url(#paint0_linear_86_1110)"/>
    <g clip-path="url(#clip0_86_1110)">
    <path d="M27.7955 18.5832C28.6908 18.7579 29.5137 19.1957 30.1587 19.8408C30.8038 20.4858 31.2416 21.3087 31.4163 22.204M27.7955 14.9165C29.6557 15.1232 31.3903 15.9562 32.7145 17.2788C34.0388 18.6014 34.874 20.3349 35.083 22.1948M34.1663 29.5098V32.2598C34.1674 32.5151 34.1151 32.7678 34.0128 33.0017C33.9105 33.2357 33.7605 33.4456 33.5724 33.6182C33.3843 33.7908 33.1622 33.9222 32.9203 34.004C32.6785 34.0858 32.4222 34.1161 32.168 34.0932C29.3473 33.7867 26.6377 32.8228 24.2572 31.279C22.0423 29.8716 20.1645 27.9938 18.7572 25.779C17.208 23.3876 16.2439 20.6649 15.943 17.8315C15.9201 17.578 15.9502 17.3225 16.0314 17.0813C16.1127 16.8401 16.2433 16.6185 16.4149 16.4305C16.5865 16.2425 16.7953 16.0923 17.0281 15.9895C17.2609 15.8866 17.5126 15.8334 17.7672 15.8332H20.5172C20.962 15.8288 21.3933 15.9863 21.7306 16.2764C22.0679 16.5665 22.2882 16.9693 22.3505 17.4098C22.4666 18.2899 22.6818 19.154 22.9922 19.9857C23.1155 20.3138 23.1422 20.6703 23.0691 21.0131C22.996 21.3559 22.8261 21.6706 22.5797 21.9198L21.4155 23.084C22.7204 25.3789 24.6206 27.2791 26.9155 28.584L28.0797 27.4198C28.3289 27.1734 28.6435 27.0035 28.9863 26.9304C29.3291 26.8573 29.6857 26.884 30.0138 27.0073C30.8455 27.3177 31.7096 27.5329 32.5897 27.649C33.0349 27.7118 33.4416 27.9361 33.7323 28.2792C34.023 28.6223 34.1775 29.0603 34.1663 29.5098Z" stroke="white" stroke-width="2" stroke-linecap="round" stroke-linejoin="round"/>
</g>
</svg>
