<svg width="23" height="23" viewBox="0 0 23 23" fill="none" xmlns="http://www.w3.org/2000/svg">
<g clip-path="url(#clip0_619_36)">
<path d="M14.0531 4.66859C14.9652 4.84653 15.8033 5.29258 16.4604 5.94964C17.1175 6.6067 17.5635 7.44488 17.7414 8.35691M14.0531 0.933594C15.948 1.14409 17.7149 1.99263 19.0639 3.33987C20.4128 4.68712 21.2636 6.453 21.4764 8.34757M20.5427 15.7989V18.6001C20.5438 18.8602 20.4905 19.1176 20.3863 19.3559C20.2821 19.5941 20.1293 19.808 19.9377 19.9838C19.7461 20.1596 19.5198 20.2935 19.2735 20.3768C19.0271 20.4601 18.7661 20.4911 18.5071 20.4676C15.6338 20.1554 12.8738 19.1736 10.4489 17.601C8.19276 16.1674 6.27998 14.2546 4.84636 11.9985C3.2683 9.56257 2.28624 6.78913 1.97975 3.90292C1.95641 3.64471 1.9871 3.38446 2.06985 3.13876C2.15261 2.89306 2.28562 2.66728 2.46041 2.47579C2.6352 2.28431 2.84795 2.13132 3.08511 2.02657C3.32227 1.92181 3.57864 1.86759 3.83791 1.86734H6.63916C7.09231 1.86288 7.53163 2.02335 7.87522 2.31884C8.21881 2.61433 8.44324 3.02468 8.50666 3.47339C8.62489 4.36986 8.84416 5.25007 9.16028 6.09723C9.28591 6.43144 9.3131 6.79466 9.23863 7.14385C9.16416 7.49304 8.99115 7.81357 8.7401 8.06744L7.55423 9.25331C8.88348 11.591 10.819 13.5266 13.1567 14.8558L14.3426 13.6699C14.5965 13.4189 14.917 13.2459 15.2662 13.1714C15.6154 13.0969 15.9786 13.1241 16.3128 13.2498C17.16 13.5659 18.0402 13.7851 18.9366 13.9034C19.3902 13.9674 19.8045 14.1958 20.1006 14.5453C20.3967 14.8948 20.5541 15.341 20.5427 15.7989Z" stroke="black" stroke-opacity="0.4" stroke-width="2" stroke-linecap="round" stroke-linejoin="round"/>
</g>
<defs>
<clipPath id="clip0_619_36">
<rect width="22.41" height="22.41" fill="white"/>
</clipPath>
</defs>
</svg>
