<svg width="22" height="22" viewBox="0 0 28 28" fill="none" xmlns="http://www.w3.org/2000/svg">
    <path d="M26.8327 22.1667C26.8327 22.7855 26.5868 23.379 26.1493 23.8166C25.7117 24.2542 25.1182 24.5 24.4993 24.5H3.49935C2.88051 24.5 2.28702 24.2542 1.84943 23.8166C1.41185 23.379 1.16602 22.7855 1.16602 22.1667V9.33333C1.16602 8.71449 1.41185 8.121 1.84943 7.68342C2.28702 7.24583 2.88051 7 3.49935 7H8.16602L10.4993 3.5H17.4993L19.8327 7H24.4993C25.1182 7 25.7117 7.24583 26.1493 7.68342C26.5868 8.121 26.8327 8.71449 26.8327 9.33333V22.1667Z" stroke="#00818A" stroke-width="2" stroke-linecap="round" stroke-linejoin="round"/>
    <path d="M14.0007 19.8333C16.578 19.8333 18.6673 17.744 18.6673 15.1667C18.6673 12.5893 16.578 10.5 14.0007 10.5C11.4233 10.5 9.33398 12.5893 9.33398 15.1667C9.33398 17.744 11.4233 19.8333 14.0007 19.8333Z" stroke="#00818A" stroke-width="2" stroke-linecap="round" stroke-linejoin="round"/>
</svg>
