<svg width="20" height="20" viewBox="0 0 20 20" fill="none" xmlns="http://www.w3.org/2000/svg">
<g clip-path="url(#clip0_505_1221)">
<path d="M14.4268 14.4269C13.0521 15.4747 11.3783 16.0552 9.65003 16.0835C4.02087 16.0835 0.804199 9.65015 0.804199 9.65015C1.80449 7.78601 3.19188 6.15734 4.87328 4.8734M7.96128 3.40982C8.51482 3.28025 9.08154 3.21548 9.65003 3.21682C15.2792 3.21682 18.4959 9.65015 18.4959 9.65015C18.0077 10.5634 17.4256 11.4231 16.7589 12.2154M11.3549 11.355C11.134 11.592 10.8677 11.7821 10.5717 11.914C10.2758 12.0458 9.95634 12.1167 9.63241 12.1225C9.30849 12.1282 8.98673 12.0686 8.68633 11.9472C8.38593 11.8259 8.11305 11.6453 7.88396 11.4162C7.65487 11.1871 7.47427 10.9143 7.35294 10.6139C7.2316 10.3135 7.17201 9.9917 7.17773 9.66777C7.18344 9.34384 7.25435 9.02438 7.3862 8.72845C7.51806 8.43252 7.70817 8.16618 7.9452 7.94532" stroke="black" stroke-opacity="0.5" stroke-width="2" stroke-linecap="round" stroke-linejoin="round"/>
<path d="M0.804199 0.804199L18.4959 18.4959" stroke="black" stroke-opacity="0.5" stroke-width="2" stroke-linecap="round" stroke-linejoin="round"/>
</g>
<defs>
<clipPath id="clip0_505_1221">
<rect width="19.3" height="19.3" fill="white"/>
</clipPath>
</defs>
</svg>
