<svg width="19" height="19" viewBox="0 0 19 19" fill="none" xmlns="http://www.w3.org/2000/svg">
<path d="M15.8904 4.01052C15.5208 3.64078 15.082 3.34747 14.5991 3.14735C14.1161 2.94724 13.5985 2.84424 13.0757 2.84424C12.5529 2.84424 12.0353 2.94724 11.5523 3.14735C11.0693 3.34747 10.6305 3.64078 10.261 4.01052L9.49397 4.77752L8.72698 4.01052C7.98047 3.26401 6.96798 2.84463 5.91226 2.84463C4.85653 2.84463 3.84405 3.26401 3.09754 4.01052C2.35103 4.75703 1.93164 5.76952 1.93164 6.82524C1.93164 7.88097 2.35103 8.89345 3.09754 9.63997L3.86453 10.407L9.49397 16.0364L15.1234 10.407L15.8904 9.63997C16.2602 9.27039 16.5535 8.83159 16.7536 8.34863C16.9537 7.86567 17.0567 7.34802 17.0567 6.82524C17.0567 6.30247 16.9537 5.78481 16.7536 5.30185C16.5535 4.81889 16.2602 4.38009 15.8904 4.01052V4.01052Z" stroke="#FB594F" stroke-width="1.73659" stroke-linecap="round" stroke-linejoin="round"/>
</svg>
