<svg width="26" height="25" viewBox="0 0 26 25" fill="none" xmlns="http://www.w3.org/2000/svg">
<path d="M21.3333 7.29199H4.66659C3.51599 7.29199 2.58325 8.22473 2.58325 9.37533V19.792C2.58325 20.9426 3.51599 21.8753 4.66659 21.8753H21.3333C22.4838 21.8753 23.4166 20.9426 23.4166 19.792V9.37533C23.4166 8.22473 22.4838 7.29199 21.3333 7.29199Z" stroke="#00818A" stroke-opacity="0.7" stroke-width="2" stroke-linecap="round" stroke-linejoin="round"/>
<path d="M17.1666 21.875V5.20833C17.1666 4.6558 16.9471 4.12589 16.5564 3.73519C16.1657 3.34449 15.6358 3.125 15.0833 3.125H10.9166C10.3641 3.125 9.83415 3.34449 9.44345 3.73519C9.05275 4.12589 8.83325 4.6558 8.83325 5.20833V21.875" stroke="#00818A" stroke-opacity="0.7" stroke-width="2" stroke-linecap="round" stroke-linejoin="round"/>
</svg>
