<svg width="22" height="22" viewBox="0 0 22 22" fill="none" xmlns="http://www.w3.org/2000/svg">
<g clip-path="url(#clip0_525_55)">
<path d="M11 0.916504C10.2707 0.916504 9.57118 1.20624 9.05546 1.72196C8.53973 2.23769 8.25 2.93716 8.25 3.6665V10.9998C8.25 11.7292 8.53973 12.4287 9.05546 12.9444C9.57118 13.4601 10.2707 13.7498 11 13.7498C11.7293 13.7498 12.4288 13.4601 12.9445 12.9444C13.4603 12.4287 13.75 11.7292 13.75 10.9998V3.6665C13.75 2.93716 13.4603 2.23769 12.9445 1.72196C12.4288 1.20624 11.7293 0.916504 11 0.916504V0.916504Z" stroke="black" stroke-opacity="0.4" stroke-width="2" stroke-linecap="round" stroke-linejoin="round"/>
<path d="M17.4166 9.1665V10.9998C17.4166 12.7016 16.7405 14.3337 15.5372 15.5371C14.3338 16.7405 12.7017 17.4165 10.9999 17.4165C9.29811 17.4165 7.66601 16.7405 6.46265 15.5371C5.25929 14.3337 4.58325 12.7016 4.58325 10.9998V9.1665" stroke="black" stroke-opacity="0.4" stroke-width="2" stroke-linecap="round" stroke-linejoin="round"/>
<path d="M11 17.4165V21.0832" stroke="black" stroke-opacity="0.4" stroke-width="2" stroke-linecap="round" stroke-linejoin="round"/>
<path d="M7.33325 21.0835H14.6666" stroke="black" stroke-opacity="0.4" stroke-width="2" stroke-linecap="round" stroke-linejoin="round"/>
</g>
<defs>
<clipPath id="clip0_525_55">
<rect width="22" height="22" fill="white"/>
</clipPath>
</defs>
</svg>
