<svg width="26" height="25" viewBox="0 0 26 25" fill="none" xmlns="http://www.w3.org/2000/svg">
<path d="M15.0832 2.08301H6.74984C6.1973 2.08301 5.6674 2.3025 5.2767 2.6932C4.886 3.0839 4.6665 3.61381 4.6665 4.16634V20.833C4.6665 21.3855 4.886 21.9154 5.2767 22.3061C5.6674 22.6968 6.1973 22.9163 6.74984 22.9163H19.2498C19.8024 22.9163 20.3323 22.6968 20.723 22.3061C21.1137 21.9154 21.3332 21.3855 21.3332 20.833V8.33301L15.0832 2.08301Z" stroke="#00818A" stroke-opacity="0.7" stroke-width="2" stroke-linecap="round" stroke-linejoin="round"/>
<path d="M15.0835 2.08301V8.33301H21.3335" stroke="#00818A" stroke-opacity="0.7" stroke-width="2" stroke-linecap="round" stroke-linejoin="round"/>
<path d="M17.1668 13.542H8.8335" stroke="#00818A" stroke-opacity="0.7" stroke-width="2" stroke-linecap="round" stroke-linejoin="round"/>
<path d="M17.1668 17.708H8.8335" stroke="#00818A" stroke-opacity="0.7" stroke-width="2" stroke-linecap="round" stroke-linejoin="round"/>
<path d="M10.9168 9.375H9.87516H8.8335" stroke="#00818A" stroke-opacity="0.7" stroke-width="2" stroke-linecap="round" stroke-linejoin="round"/>
</svg>
