<svg width="51" height="52" viewBox="0 0 51 52" fill="none" xmlns="http://www.w3.org/2000/svg">
<g filter="url(#filter0_d_525_441)">
<circle cx="24.5" cy="25.5" r="22.5" fill="#D9D9D9" fill-opacity="0.01" shape-rendering="crispEdges"/>
<circle cx="24.5" cy="25.5" r="22.125" stroke="black" stroke-opacity="0.15" stroke-width="0.75" shape-rendering="crispEdges"/>
</g>
<g filter="url(#filter1_d_525_441)">
<circle cx="40" cy="9" r="5" fill="#00818A"/>
</g>
<path d="M30 21C30 19.4087 29.3679 17.8826 28.2426 16.7574C27.1174 15.6321 25.5913 15 24 15C22.4087 15 20.8826 15.6321 19.7574 16.7574C18.6321 17.8826 18 19.4087 18 21C18 28 15 30 15 30H33C33 30 30 28 30 21Z" stroke="black" stroke-opacity="0.4" stroke-width="2" stroke-linecap="round" stroke-linejoin="round"/>
<path d="M25.73 34C25.5542 34.3031 25.3019 34.5547 24.9982 34.7295C24.6946 34.9044 24.3504 34.9965 24 34.9965C23.6496 34.9965 23.3054 34.9044 23.0018 34.7295C22.6982 34.5547 22.4458 34.3031 22.27 34" stroke="black" stroke-opacity="0.4" stroke-width="2" stroke-linecap="round" stroke-linejoin="round"/>
<defs>
<filter id="filter0_d_525_441" x="0" y="1" width="51" height="51" filterUnits="userSpaceOnUse" color-interpolation-filters="sRGB">
<feFlood flood-opacity="0" result="BackgroundImageFix"/>
<feColorMatrix in="SourceAlpha" type="matrix" values="0 0 0 0 0 0 0 0 0 0 0 0 0 0 0 0 0 0 127 0" result="hardAlpha"/>
<feOffset dx="1" dy="1"/>
<feGaussianBlur stdDeviation="1.5"/>
<feComposite in2="hardAlpha" operator="out"/>
<feColorMatrix type="matrix" values="0 0 0 0 0 0 0 0 0 0 0 0 0 0 0 0 0 0 0.1 0"/>
<feBlend mode="normal" in2="BackgroundImageFix" result="effect1_dropShadow_525_441"/>
<feBlend mode="normal" in="SourceGraphic" in2="effect1_dropShadow_525_441" result="shape"/>
</filter>
<filter id="filter1_d_525_441" x="31" y="0" width="20" height="20" filterUnits="userSpaceOnUse" color-interpolation-filters="sRGB">
<feFlood flood-opacity="0" result="BackgroundImageFix"/>
<feColorMatrix in="SourceAlpha" type="matrix" values="0 0 0 0 0 0 0 0 0 0 0 0 0 0 0 0 0 0 127 0" result="hardAlpha"/>
<feOffset dx="1" dy="1"/>
<feGaussianBlur stdDeviation="2.5"/>
<feComposite in2="hardAlpha" operator="out"/>
<feColorMatrix type="matrix" values="0 0 0 0 0 0 0 0 0 0 0 0 0 0 0 0 0 0 0.25 0"/>
<feBlend mode="normal" in2="BackgroundImageFix" result="effect1_dropShadow_525_441"/>
<feBlend mode="normal" in="SourceGraphic" in2="effect1_dropShadow_525_441" result="shape"/>
</filter>
</defs>
</svg>
