<svg width="117" height="18" viewBox="0 0 117 18" fill="none" xmlns="http://www.w3.org/2000/svg">
    <path d="M34.8386 8.1751L117 16H34.4668C30.9733 16 29.2238 11.7762 31.694 9.30596C32.5211 8.47889 33.6742 8.06421 34.8386 8.1751Z" fill="#74CC7E"/>
    <path d="M6.698 13.119C5.576 13.119 4.54467 12.8583 3.604 12.337C2.67467 11.8157 1.93233 11.0903 1.377 10.161C0.833 9.22033 0.561 8.16633 0.561 6.999C0.561 5.83167 0.833 4.78333 1.377 3.854C1.93233 2.92467 2.67467 2.19933 3.604 1.678C4.54467 1.15667 5.576 0.896 6.698 0.896C7.82 0.896 8.84567 1.15667 9.775 1.678C10.7157 2.19933 11.4523 2.92467 11.985 3.854C12.529 4.78333 12.801 5.83167 12.801 6.999C12.801 8.16633 12.529 9.22033 11.985 10.161C11.441 11.0903 10.7043 11.8157 9.775 12.337C8.84567 12.8583 7.82 13.119 6.698 13.119ZM6.698 10.467C7.65 10.467 8.40933 10.1497 8.976 9.515C9.554 8.88033 9.843 8.04167 9.843 6.999C9.843 5.945 9.554 5.10633 8.976 4.483C8.40933 3.84833 7.65 3.531 6.698 3.531C5.73467 3.531 4.964 3.84267 4.386 4.466C3.81933 5.08933 3.536 5.93367 3.536 6.999C3.536 8.053 3.81933 8.89733 4.386 9.532C4.964 10.1553 5.73467 10.467 6.698 10.467Z" fill="#97D99E"/>
    <path d="M13.9253 7.016C13.9253 5.83733 14.1803 4.789 14.6903 3.871C15.2003 2.94167 15.9086 2.222 16.8153 1.712C17.7333 1.19067 18.7703 0.929999 19.9263 0.929999C21.3429 0.929999 22.5556 1.304 23.5643 2.052C24.5729 2.8 25.2473 3.82 25.5873 5.112H22.3913C22.1533 4.61333 21.8133 4.23367 21.3713 3.973C20.9406 3.71233 20.4476 3.582 19.8923 3.582C18.9969 3.582 18.2716 3.89367 17.7163 4.517C17.1609 5.14033 16.8833 5.97333 16.8833 7.016C16.8833 8.05867 17.1609 8.89167 17.7163 9.515C18.2716 10.1383 18.9969 10.45 19.8923 10.45C20.4476 10.45 20.9406 10.3197 21.3713 10.059C21.8133 9.79833 22.1533 9.41867 22.3913 8.92H25.5873C25.2473 10.212 24.5729 11.232 23.5643 11.98C22.5556 12.7167 21.3429 13.085 19.9263 13.085C18.7703 13.085 17.7333 12.83 16.8153 12.32C15.9086 11.7987 15.2003 11.079 14.6903 10.161C14.1803 9.243 13.9253 8.19467 13.9253 7.016Z" fill="#00818A"/>
    <path d="M34.4974 3.64V6.44H38.2574V8.216H34.4974V11.176H38.7374V13H32.2574V1.816H38.7374V3.64H34.4974ZM45.669 13L43.845 10.248L42.229 13H39.829L42.725 8.552L39.797 4.136H42.325L44.133 6.872L45.765 4.136H48.165L45.253 8.552L48.197 13H45.669ZM51.6536 5.416C51.9416 5.01067 52.3363 4.67467 52.8376 4.408C53.3496 4.13067 53.931 3.992 54.5816 3.992C55.339 3.992 56.0216 4.17867 56.6296 4.552C57.2483 4.92533 57.7336 5.45867 58.0856 6.152C58.4483 6.83467 58.6296 7.62933 58.6296 8.536C58.6296 9.44267 58.4483 10.248 58.0856 10.952C57.7336 11.6453 57.2483 12.184 56.6296 12.568C56.0216 12.952 55.339 13.144 54.5816 13.144C53.931 13.144 53.355 13.0107 52.8536 12.744C52.363 12.4773 51.963 12.1413 51.6536 11.736V17.224H49.4136V4.136H51.6536V5.416ZM56.3416 8.536C56.3416 8.00267 56.2296 7.544 56.0056 7.16C55.7923 6.76533 55.5043 6.46667 55.1416 6.264C54.7896 6.06133 54.4056 5.96 53.9896 5.96C53.5843 5.96 53.2003 6.06667 52.8376 6.28C52.4856 6.48267 52.1976 6.78133 51.9736 7.176C51.7603 7.57067 51.6536 8.03467 51.6536 8.568C51.6536 9.10133 51.7603 9.56533 51.9736 9.96C52.1976 10.3547 52.4856 10.6587 52.8376 10.872C53.2003 11.0747 53.5843 11.176 53.9896 11.176C54.4056 11.176 54.7896 11.0693 55.1416 10.856C55.5043 10.6427 55.7923 10.3387 56.0056 9.944C56.2296 9.54933 56.3416 9.08 56.3416 8.536ZM68.4974 8.376C68.4974 8.696 68.476 8.984 68.4334 9.24H61.9534C62.0067 9.88 62.2307 10.3813 62.6254 10.744C63.02 11.1067 63.5054 11.288 64.0814 11.288C64.9134 11.288 65.5054 10.9307 65.8574 10.216H68.2734C68.0174 11.0693 67.5267 11.7733 66.8014 12.328C66.076 12.872 65.1854 13.144 64.1294 13.144C63.276 13.144 62.508 12.9573 61.8254 12.584C61.1534 12.2 60.6254 11.6613 60.2414 10.968C59.868 10.2747 59.6814 9.47467 59.6814 8.568C59.6814 7.65067 59.868 6.84533 60.2414 6.152C60.6147 5.45867 61.1374 4.92533 61.8094 4.552C62.4814 4.17867 63.2547 3.992 64.1294 3.992C64.972 3.992 65.724 4.17333 66.3854 4.536C67.0574 4.89867 67.5747 5.416 67.9374 6.088C68.3107 6.74933 68.4974 7.512 68.4974 8.376ZM66.1774 7.736C66.1667 7.16 65.9587 6.70133 65.5534 6.36C65.148 6.008 64.652 5.832 64.0654 5.832C63.5107 5.832 63.0414 6.00267 62.6574 6.344C62.284 6.67467 62.0547 7.13867 61.9694 7.736H66.1774ZM72.3724 5.512C72.6604 5.04267 73.0337 4.67467 73.4924 4.408C73.9617 4.14133 74.495 4.008 75.0924 4.008V6.36H74.5004C73.7964 6.36 73.263 6.52533 72.9004 6.856C72.5484 7.18667 72.3724 7.76267 72.3724 8.584V13H70.1324V4.136H72.3724V5.512ZM79.2091 5.976V10.264C79.2091 10.5627 79.2785 10.7813 79.4171 10.92C79.5665 11.048 79.8118 11.112 80.1531 11.112H81.1931V13H79.7851C77.8971 13 76.9531 12.0827 76.9531 10.248V5.976H75.8971V4.136H76.9531V1.944H79.2091V4.136H81.1931V5.976H79.2091ZM86.1962 13.144C85.4709 13.144 84.8202 13.016 84.2442 12.76C83.6682 12.4933 83.2096 12.136 82.8682 11.688C82.5376 11.24 82.3562 10.744 82.3242 10.2H84.5802C84.6229 10.5413 84.7882 10.824 85.0762 11.048C85.3749 11.272 85.7429 11.384 86.1802 11.384C86.6069 11.384 86.9376 11.2987 87.1722 11.128C87.4176 10.9573 87.5402 10.7387 87.5402 10.472C87.5402 10.184 87.3909 9.97067 87.0922 9.832C86.8042 9.68267 86.3402 9.52267 85.7002 9.352C85.0389 9.192 84.4949 9.02667 84.0682 8.856C83.6522 8.68533 83.2896 8.424 82.9802 8.072C82.6816 7.72 82.5322 7.24533 82.5322 6.648C82.5322 6.15733 82.6709 5.70933 82.9482 5.304C83.2362 4.89867 83.6416 4.57867 84.1642 4.344C84.6976 4.10933 85.3216 3.992 86.0362 3.992C87.0922 3.992 87.9349 4.25867 88.5642 4.792C89.1936 5.31467 89.5402 6.024 89.6042 6.92H87.4602C87.4282 6.568 87.2789 6.29067 87.0122 6.088C86.7562 5.87467 86.4096 5.768 85.9722 5.768C85.5669 5.768 85.2522 5.84267 85.0282 5.992C84.8149 6.14133 84.7082 6.34933 84.7082 6.616C84.7082 6.91467 84.8576 7.144 85.1562 7.304C85.4549 7.45333 85.9189 7.608 86.5482 7.768C87.1882 7.928 87.7162 8.09333 88.1322 8.264C88.5482 8.43467 88.9056 8.70133 89.2042 9.064C89.5136 9.416 89.6736 9.88533 89.6842 10.472C89.6842 10.984 89.5402 11.4427 89.2522 11.848C88.9749 12.2533 88.5696 12.5733 88.0362 12.808C87.5136 13.032 86.9002 13.144 86.1962 13.144Z" fill="black"/>
</svg>
