<svg width="22" height="22" viewBox="0 0 22 22" fill="none" xmlns="http://www.w3.org/2000/svg">
<path d="M14.667 3.6665H16.5003C16.9866 3.6665 17.4529 3.85966 17.7967 4.20347C18.1405 4.54729 18.3337 5.01361 18.3337 5.49984V18.3332C18.3337 18.8194 18.1405 19.2857 17.7967 19.6295C17.4529 19.9733 16.9866 20.1665 16.5003 20.1665H5.50033C5.0141 20.1665 4.54778 19.9733 4.20396 19.6295C3.86015 19.2857 3.66699 18.8194 3.66699 18.3332V5.49984C3.66699 5.01361 3.86015 4.54729 4.20396 4.20347C4.54778 3.85966 5.0141 3.6665 5.50033 3.6665H7.33366" stroke="black" stroke-opacity="0.5" stroke-width="2" stroke-linecap="round" stroke-linejoin="round"/>
<path d="M13.7497 1.8335H8.24967C7.74341 1.8335 7.33301 2.2439 7.33301 2.75016V4.5835C7.33301 5.08976 7.74341 5.50016 8.24967 5.50016H13.7497C14.2559 5.50016 14.6663 5.08976 14.6663 4.5835V2.75016C14.6663 2.2439 14.2559 1.8335 13.7497 1.8335Z" stroke="black" stroke-opacity="0.5" stroke-width="2" stroke-linecap="round" stroke-linejoin="round"/>
</svg>
