<svg width="22" height="22" viewBox="0 0 22 22" fill="none" xmlns="http://www.w3.org/2000/svg">
<path d="M6.41634 20.1668H3.66634C3.18011 20.1668 2.7138 19.9737 2.36998 19.6299C2.02616 19.286 1.83301 18.8197 1.83301 18.3335V11.9168C1.83301 11.4306 2.02616 10.9643 2.36998 10.6205C2.7138 10.2767 3.18011 10.0835 3.66634 10.0835H6.41634M12.833 8.25016V4.5835C12.833 3.85415 12.5433 3.15468 12.0276 2.63895C11.5118 2.12323 10.8124 1.8335 10.083 1.8335L6.41634 10.0835V20.1668H16.7563C17.1985 20.1718 17.6275 20.0169 17.9644 19.7305C18.3013 19.4441 18.5234 19.0457 18.5897 18.6085L19.8547 10.3585C19.8946 10.0957 19.8768 9.82745 19.8027 9.57223C19.7286 9.317 19.5999 9.08093 19.4255 8.88038C19.2512 8.67984 19.0352 8.5196 18.7928 8.41078C18.5503 8.30196 18.2871 8.24715 18.0213 8.25016H12.833Z" stroke="black" stroke-opacity="0.5" stroke-width="2" stroke-linecap="round" stroke-linejoin="round"/>
</svg>
