<svg width="35" height="36" viewBox="0 0 35 36" fill="none" xmlns="http://www.w3.org/2000/svg">
    <defs>
        <linearGradient id="paint0_linear_89_983" x1="17.4836" y1="0.820312" x2="17.4836" y2="35.1599" gradientUnits="userSpaceOnUse">
            <stop stop-color="#00818A"/>
            <stop offset="1" stop-color="#74CC7E"/>
        </linearGradient>
        <clipPath id="clip0_89_983">
            <rect width="17.3957" height="17.1698" fill="white" transform="translate(8.78516 9.40479)"/>
        </clipPath>
    </defs>
    <path d="M34.45 17.9901C34.45 27.2304 26.8592 34.7306 17.4836 34.7306C8.10797 34.7306 0.517135 27.2304 0.517135 17.9901C0.517135 8.74982 8.10797 1.24956 17.4836 1.24956C26.8592 1.24956 34.45 8.74982 34.45 17.9901Z" stroke="url(#paint0_linear_89_983)" stroke-opacity="0.5" stroke-width="0.858489"/>
<g clip-path="url(#clip0_89_983)">
<path d="M13.8604 25.1441H11.686C11.3015 25.1441 10.9328 24.9933 10.6609 24.725C10.3891 24.4567 10.2363 24.0927 10.2363 23.7133V18.7054C10.2363 18.3259 10.3891 17.962 10.6609 17.6937C10.9328 17.4254 11.3015 17.2746 11.686 17.2746H13.8604M18.9342 15.8438V12.9822C18.9342 12.4129 18.7051 11.867 18.2973 11.4646C17.8895 11.0621 17.3364 10.8359 16.7597 10.8359L13.8604 17.2746V25.1441H22.0364C22.386 25.148 22.7253 25.027 22.9917 24.8036C23.258 24.5801 23.4336 24.2691 23.4861 23.9279L24.4863 17.4892C24.5178 17.2842 24.5038 17.0748 24.4452 16.8756C24.3866 16.6764 24.2849 16.4922 24.147 16.3356C24.0091 16.1791 23.8384 16.0541 23.6466 15.9691C23.4549 15.8842 23.2468 15.8414 23.0367 15.8438H18.9342Z" stroke="#74CC7E" stroke-width="1.71698" stroke-linecap="round" stroke-linejoin="round"/>
</g>

</svg>
