<svg width="36" height="36" viewBox="0 0 36 36" fill="none" xmlns="http://www.w3.org/2000/svg">
    <defs>
        <linearGradient id="paint0_linear_89_1003" x1="17.9738" y1="0.820312" x2="17.9738"
            y2="35.1599" gradientUnits="userSpaceOnUse">
            <stop stop-color="#00818A" />
            <stop offset="1" stop-color="#74CC7E" />
        </linearGradient>
    </defs>
    <path
        d="M34.9403 17.9901C34.9403 27.2304 27.3494 34.7306 17.9738 34.7306C8.5982 34.7306 1.00737 27.2304 1.00737 17.9901C1.00737 8.74982 8.5982 1.24956 17.9738 1.24956C27.3494 1.24956 34.9403 8.74982 34.9403 17.9901Z"
        stroke="url(#paint0_linear_89_1003)" stroke-opacity="0.5" stroke-width="0.858489" />
    <path
        d="M25.8007 20.566C25.8007 21.0214 25.6174 21.4581 25.2911 21.7801C24.9649 22.1021 24.5225 22.283 24.0611 22.283H13.6237L10.1445 25.717V11.9811C10.1445 11.5258 10.3278 11.089 10.654 10.7671C10.9803 10.4451 11.4227 10.2642 11.8841 10.2642H24.0611C24.5225 10.2642 24.9649 10.4451 25.2911 10.7671C25.6174 11.089 25.8007 11.5258 25.8007 11.9811V20.566Z"
        stroke="#74CC7E" stroke-width="1.71698" stroke-linecap="round" stroke-linejoin="round" />

</svg>
