<svg width="36" height="36" viewBox="0 0 36 36" fill="none" xmlns="http://www.w3.org/2000/svg">
    <defs>
        <linearGradient id="paint0_linear_89_982" x1="17.9914" y1="0.820312" x2="17.9914" y2="35.1599" gradientUnits="userSpaceOnUse">
            <stop stop-color="#00818A"/>
            <stop offset="1" stop-color="#74CC7E"/>
        </linearGradient>
        <clipPath id="clip0_89_982">
            <rect width="17.3957" height="17.1698" fill="white" transform="translate(9.29297 9.40479)"/>
        </clipPath>
    </defs>
    <path d="M34.9579 17.9901C34.9579 27.2304 27.367 34.7306 17.9914 34.7306C8.61578 34.7306 1.02495 27.2304 1.02495 17.9901C1.02495 8.74982 8.61578 1.24956 17.9914 1.24956C27.367 1.24956 34.9579 8.74982 34.9579 17.9901Z" stroke="url(#paint0_linear_89_982)" stroke-opacity="0.5" stroke-width="0.858489"/>
<g clip-path="url(#clip0_89_982)">
<path d="M22.3385 15.1284C23.5394 15.1284 24.513 14.1675 24.513 12.9822C24.513 11.7968 23.5394 10.8359 22.3385 10.8359C21.1376 10.8359 20.1641 11.7968 20.1641 12.9822C20.1641 14.1675 21.1376 15.1284 22.3385 15.1284Z" stroke="#74CC7E" stroke-width="1.71698" stroke-linecap="round" stroke-linejoin="round"/>
<path d="M13.6413 20.1362C14.8422 20.1362 15.8157 19.1753 15.8157 17.99C15.8157 16.8046 14.8422 15.8438 13.6413 15.8438C12.4403 15.8438 11.4668 16.8046 11.4668 17.99C11.4668 19.1753 12.4403 20.1362 13.6413 20.1362Z" stroke="#74CC7E" stroke-width="1.71698" stroke-linecap="round" stroke-linejoin="round"/>
<path d="M22.3385 25.144C23.5394 25.144 24.513 24.1831 24.513 22.9978C24.513 21.8125 23.5394 20.8516 22.3385 20.8516C21.1376 20.8516 20.1641 21.8125 20.1641 22.9978C20.1641 24.1831 21.1376 25.144 22.3385 25.144Z" stroke="#74CC7E" stroke-width="1.71698" stroke-linecap="round" stroke-linejoin="round"/>
<path d="M15.5195 19.0698L20.4701 21.9171" stroke="#74CC7E" stroke-width="1.71698" stroke-linecap="round" stroke-linejoin="round"/>
<path d="M20.4628 14.062L15.5195 16.9093" stroke="#74CC7E" stroke-width="1.71698" stroke-linecap="round" stroke-linejoin="round"/>
</g>

</svg>
