<svg width="16" height="17" viewBox="0 0 16 17" fill="none" xmlns="http://www.w3.org/2000/svg">
<path d="M12.2278 3.68079C12.4283 3.68079 12.591 3.51816 12.591 3.31758V2.10687C12.591 1.90628 12.4283 1.74365 12.2278 1.74365H3.26849C3.0679 1.74365 2.90527 1.90628 2.90527 2.10687V3.46129C2.90527 3.66187 3.0679 3.8245 3.26849 3.8245H5.84973C6.67628 3.8245 7.31048 4.12591 7.69515 4.64936H3.26849C3.0679 4.64936 2.90527 4.81199 2.90527 5.01258V6.22329C2.90527 6.42387 3.0679 6.5865 3.26849 6.5865H8.07371C7.88554 7.67875 7.07606 8.36116 5.81098 8.36116H3.26849C3.0679 8.36116 2.90527 8.52379 2.90527 8.72438V10.3289C2.90527 10.4303 2.94765 10.5271 3.02214 10.5958L8.0179 15.2073C8.08499 15.2692 8.17295 15.3036 8.26425 15.3036H10.7632C11.0939 15.3036 11.2525 14.8978 11.0096 14.6735L6.4427 10.4579C8.75816 10.3871 10.4121 8.84179 10.6293 6.5865H12.2278C12.4283 6.5865 12.591 6.42387 12.591 6.22329V5.01258C12.591 4.81199 12.4283 4.64936 12.2278 4.64936H10.4513C10.3458 4.30004 10.2007 3.97602 10.02 3.68079H12.2278Z" fill="#00818A"/>
</svg>
